<?xml version="1.0" standalone="no"?>
<!DOCTYPE svg PUBLIC "-//W3C//DTD SVG 20010904//EN"
 "http://www.w3.org/TR/2001/REC-SVG-20010904/DTD/svg10.dtd">
<svg version="1.0" xmlns="http://www.w3.org/2000/svg"
 width="528.000000pt" height="216.000000pt" viewBox="0 0 528.000000 216.000000"
 preserveAspectRatio="xMidYMid meet">
<metadata>
Created by potrace 1.10, written by Peter Selinger 2001-2011
</metadata>
<g transform="translate(0.000000,216.000000) scale(0.100000,-0.100000)"
fill="#000000" stroke="none">
<path d="M1900 1942 c-49 -10 -140 -57 -185 -97 -39 -35 -43 -41 -84 -119 -25
-46 -46 -57 -69 -34 -8 8 -40 12 -87 11 -142 -2 -234 -75 -252 -201 -7 -41
-17 -47 -55 -31 -52 22 -179 -11 -226 -58 -22 -22 -34 -16 -96 47 -32 33 -67
60 -78 60 -10 0 -33 7 -50 16 -48 25 -179 8 -268 -34 -46 -23 -119 -101 -138
-148 -8 -22 -17 -72 -19 -112 l-5 -72 -41 -22 c-144 -73 -217 -182 -224 -335
-4 -70 -1 -88 20 -135 31 -67 65 -108 109 -129 50 -25 143 -50 159 -44 24 9
69 -12 69 -33 0 -29 94 -119 157 -151 92 -46 178 -64 280 -58 126 7 197 25
273 69 59 33 66 33 160 -21 106 -60 213 -81 318 -63 36 6 68 16 70 22 2 5 9
10 16 10 11 0 56 52 56 65 0 3 -9 5 -20 5 -11 0 -20 -4 -20 -10 0 -5 -8 -10
-18 -10 -10 0 -28 -7 -40 -16 -37 -26 -235 -9 -300 25 -9 5 -45 26 -80 46 -52
31 -69 36 -97 31 -19 -4 -35 -11 -35 -16 0 -6 -6 -10 -13 -10 -7 0 -29 -9 -50
-20 -20 -11 -45 -20 -55 -20 -10 0 -23 -5 -30 -12 -17 -17 -226 -16 -282 2
-104 34 -192 102 -253 196 -32 49 -32 49 -97 54 -87 7 -139 38 -188 115 -23
36 -26 50 -26 132 0 72 4 97 17 111 9 10 17 23 17 29 0 17 98 111 123 119 11
4 27 13 35 20 7 8 24 14 37 14 34 0 40 15 42 108 1 60 6 89 17 101 9 10 16 22
16 28 0 17 62 68 105 86 43 18 99 29 131 24 55 -7 116 -24 123 -34 3 -5 18
-16 34 -26 15 -10 38 -36 52 -58 27 -42 56 -61 63 -41 10 31 140 72 228 72 54
0 146 -23 172 -43 21 -17 25 1 8 37 -9 20 -16 58 -16 93 1 65 10 81 79 131 39
29 51 32 114 32 53 0 78 -5 103 -21 19 -11 34 -25 34 -30 0 -5 7 -9 15 -9 11
0 15 12 15 49 0 31 6 55 15 65 8 8 15 19 15 26 0 15 80 100 94 100 7 0 17 5
23 11 26 26 118 49 198 49 90 0 167 -21 255 -72 8 -4 21 -11 29 -15 46 -21
121 -121 121 -161 0 -10 4 -22 9 -27 6 -6 11 -32 13 -60 3 -49 4 -50 38 -53
126 -10 206 -130 178 -265 -7 -36 -7 -51 3 -63 12 -14 14 -14 26 2 7 10 13 26
13 35 0 10 6 19 13 22 19 6 12 215 -8 237 -8 9 -15 21 -15 27 0 21 -66 60
-125 73 -33 7 -66 18 -72 23 -8 5 -13 32 -13 63 0 30 -4 54 -10 54 -5 0 -13
12 -16 26 -8 32 -131 154 -155 154 -9 0 -22 7 -29 15 -7 8 -21 15 -32 15 -10
0 -33 7 -50 16 -33 17 -225 28 -288 16z"/>
<path d="M909 1188 c0 -2 -1 -149 -2 -328 l-1 -325 247 -3 247 -2 0 60 0 60
-185 0 -185 0 0 79 c0 51 4 82 13 88 7 6 64 5 148 0 76 -6 144 -7 154 -4 13 5
15 18 13 59 l-3 53 -160 0 -160 0 -3 73 -3 72 176 0 176 0 -3 58 -3 57 -232 3
c-128 1 -233 1 -234 0z"/>
<path d="M1791 1148 c0 -24 3 -73 8 -110 7 -65 6 -68 -14 -68 -12 0 -30 8 -39
19 -21 24 -66 33 -119 24 -31 -5 -53 -18 -89 -54 -26 -26 -48 -57 -48 -68 0
-12 -5 -41 -12 -66 -10 -35 -9 -58 1 -107 12 -63 65 -158 87 -158 6 0 17 -7
24 -15 18 -21 108 -20 140 2 14 9 30 24 37 33 13 17 29 6 35 -25 3 -17 11 -20
62 -20 l58 0 1 325 2 325 -68 3 -67 3 1 -43z m-25 -250 c11 -13 26 -46 33 -74
15 -63 -1 -135 -38 -176 -33 -38 -88 -39 -121 -3 -37 39 -65 165 -40 180 6 3
10 16 10 27 0 12 10 32 22 45 30 32 106 33 134 1z"/>
<path d="M3338 1166 c-31 -6 -63 -17 -70 -23 -6 -7 -16 -13 -21 -13 -15 0 -67
-64 -89 -108 -18 -38 -21 -61 -20 -169 0 -146 9 -171 83 -243 40 -38 58 -48
121 -63 72 -17 78 -17 144 -1 38 10 76 23 84 29 8 7 22 15 31 18 9 3 26 25 38
49 12 24 27 50 33 59 20 29 2 49 -41 49 -51 0 -71 -8 -71 -30 0 -41 -76 -89
-141 -90 -65 0 -159 64 -159 108 0 10 -7 28 -16 40 -12 17 -15 39 -11 85 11
161 90 233 235 213 47 -6 73 -26 92 -72 14 -35 120 -43 120 -10 0 30 -65 136
-83 136 -6 0 -18 6 -26 14 -17 14 -119 37 -155 35 -12 -1 -47 -7 -78 -13z"/>
<path d="M3735 1156 c-14 -10 -16 -19 -10 -42 11 -41 14 -429 4 -488 -6 -33
-5 -53 2 -62 13 -16 85 -19 94 -4 9 15 6 583 -3 591 -16 14 -70 17 -87 5z"/>
<path d="M5123 1158 c-4 -7 -8 -51 -8 -98 0 -85 0 -85 -25 -82 -13 1 -28 9
-32 16 -4 7 -28 19 -53 26 -78 22 -153 -16 -191 -96 -15 -31 -19 -62 -19 -152
0 -72 4 -115 11 -120 6 -4 14 -16 18 -28 3 -11 21 -31 39 -45 29 -22 41 -24
134 -24 82 0 105 4 120 18 11 9 24 17 30 17 6 0 22 15 37 34 l26 35 0 245 c0
135 -3 247 -7 249 -24 14 -72 17 -80 5z m-83 -225 c45 -21 80 -87 80 -148 0
-62 -35 -127 -81 -149 -38 -19 -40 -19 -79 -1 -52 23 -80 79 -80 158 0 67 24
113 72 139 41 22 44 22 88 1z"/>
<path d="M4006 1015 c-50 -19 -70 -37 -96 -87 -25 -47 -32 -168 -15 -232 14
-52 36 -96 47 -96 4 0 17 -9 29 -21 15 -15 38 -22 87 -26 126 -10 191 27 225
128 44 131 -14 314 -106 334 -67 14 -133 14 -171 0z m143 -93 c72 -60 72 -204
1 -269 -40 -37 -65 -41 -108 -16 -43 25 -62 71 -62 153 0 76 17 117 59 143 39
23 73 20 110 -11z"/>
<path d="M2165 1014 c-38 -9 -93 -68 -115 -124 -25 -63 -24 -168 2 -233 18
-45 65 -97 89 -97 10 0 21 -4 24 -10 3 -5 26 -10 49 -10 36 0 51 7 89 40 25
22 48 40 51 40 3 0 6 -27 6 -61 0 -54 -3 -64 -29 -90 -41 -41 -96 -41 -135 0
-18 18 -42 31 -64 34 -21 3 -48 8 -61 12 -24 8 -24 7 -18 -39 11 -77 76 -116
206 -123 106 -7 162 20 204 96 15 29 17 64 17 297 l0 264 -60 0 c-60 0 -60 0
-60 -30 0 -38 -8 -38 -47 0 -24 24 -42 32 -80 35 -26 2 -57 1 -68 -1z m164
-133 c27 -34 31 -46 31 -102 0 -71 -18 -108 -66 -140 -45 -29 -69 -24 -108 25
-34 40 -36 48 -36 112 0 63 3 73 31 107 27 32 36 37 74 37 38 0 47 -4 74 -39z"/>
<path d="M2730 1012 c-100 -28 -160 -119 -160 -242 0 -148 86 -240 224 -240
92 0 164 41 205 119 14 25 10 27 -65 34 -48 5 -51 4 -77 -29 -45 -55 -103 -44
-150 28 -36 57 -33 58 148 58 l165 0 0 28 c0 40 -32 133 -58 169 -34 48 -81
72 -148 77 -33 3 -70 2 -84 -2z m144 -135 c47 -59 32 -71 -88 -75 l-96 -3 0
33 c0 21 9 41 27 60 24 25 34 29 77 26 43 -3 53 -8 80 -41z"/>
<path d="M4339 1013 c0 -5 0 -84 1 -177 1 -146 4 -175 21 -208 11 -21 25 -38
31 -38 6 0 20 -8 31 -17 15 -15 38 -18 116 -18 84 0 101 3 125 22 63 50 63 52
67 253 l4 185 -43 -1 c-23 0 -45 -3 -48 -7 -3 -3 -5 -77 -5 -165 l2 -159 -36
-32 c-45 -39 -91 -42 -128 -7 -36 34 -40 56 -35 221 2 115 0 146 -10 150 -21
8 -92 6 -93 -2z"/>
</g>
</svg>
