<?xml version="1.0" standalone="no"?>
<!DOCTYPE svg PUBLIC "-//W3C//DTD SVG 20010904//EN"
 "http://www.w3.org/TR/2001/REC-SVG-20010904/DTD/svg10.dtd">
<svg version="1.0" xmlns="http://www.w3.org/2000/svg"
 width="512.000000pt" height="512.000000pt" viewBox="0 0 512.000000 512.000000"
 preserveAspectRatio="xMidYMid meet">

<g transform="translate(0.000000,512.000000) scale(0.100000,-0.100000)"
fill="#000000" stroke="none">
<path d="M2940 4524 c-176 -21 -325 -66 -470 -140 -183 -94 -332 -221 -452
-386 l-51 -70 -49 6 c-69 10 -244 -11 -344 -39 -150 -44 -292 -122 -420 -231
-117 -100 -252 -306 -299 -455 l-18 -57 -76 -12 c-152 -24 -281 -78 -396 -162
-415 -307 -484 -894 -152 -1284 113 -133 256 -226 432 -281 l90 -28 1690 -3
c1511 -2 1700 -1 1785 13 725 122 1120 901 789 1558 -122 240 -343 432 -604
523 -85 30 -90 34 -98 65 -19 73 -70 216 -99 274 -80 158 -229 342 -362 445
-147 112 -343 203 -521 239 -97 20 -304 33 -375 25z m336 -419 c267 -67 493
-266 597 -526 34 -86 53 -168 68 -302 11 -95 15 -108 33 -112 12 -2 67 -11
124 -20 120 -18 173 -34 262 -81 224 -117 362 -342 363 -594 1 -125 -15 -196
-68 -305 -92 -189 -242 -314 -446 -372 -61 -17 -153 -18 -1739 -18 l-1675 0
-68 23 c-220 76 -362 309 -327 536 32 214 200 382 415 417 60 10 90 9 205 -9
74 -11 136 -19 137 -18 2 1 12 67 24 147 34 239 80 340 214 474 174 175 380
229 659 176 59 -12 112 -21 119 -21 7 0 32 38 56 85 69 136 132 224 218 307
224 212 523 289 829 213z"/>
</g>
</svg>
