<?xml version="1.0" encoding="UTF-8" standalone="yes"?>
<svg version="1.2" width="1080" height="1080" viewBox="0 0 1080 1080" xml:space="preserve" baseProfile="tiny-ps" xmlns="http://www.w3.org/2000/svg">
  <title>EdgeCloud</title>
  <desc>Created with Fabric.js 5.2.4</desc>
  <defs>
</defs>
  <g transform="matrix(1 0 0 1 540 540)" id="b8409dd5-2729-4d2f-ad7f-b18a100143de">
    <rect vector-effect="non-scaling-stroke" x="-540" y="-540" rx="0" ry="0" width="1080" height="1080" stroke="none" stroke-width="1" stroke-dasharray="none" stroke-linecap="butt" stroke-dashoffset="0" stroke-linejoin="miter" stroke-miterlimit="4" fill="rgb(255,255,255)" fill-rule="nonzero"/>
  </g>
  <g transform="matrix(1 0 0 1 540 540)" id="f89ba3c6-ab07-4592-b28b-31789820c9f9"/>
  <g transform="matrix(1 0 0 1 540 540)">
    <g vector-effect="non-scaling-stroke">
      <g transform="matrix(1.33 0 0 1.33 0 -121.86)" id="path2">
        <path vector-effect="non-scaling-stroke" transform=" translate(-406.69, -220.69)" d="M 15.273438 287.746094 C 15.273438 195.15625 82.066406 122.144531 178.136719 132.265625 C 190.761719 14.28125 402.027344 -49.238281 476.109375 111.886719 C 580.515625 60.222656 671.765625 116.929688 682.417969 219.070313 C 783.097656 193.632813 820.160156 282.394531 785.308594 331.023438 C 802.878906 284.402344 763.296875 214.082031 671.476563 238.761719 C 662.300781 150.851563 548.824219 92.519531 465.523438 163.675781 C 401.761719 25 232.71875 66.75 221.855469 168.292969 C 139.167969 159.585938 90.078125 223.621094 90.078125 303.308594 C 91.796875 368.1875 131.441406 412.125 192.394531 421.390625 C 93.335938 444.355469 17.828125 383.953125 15.273438 287.746094" stroke-linecap="butt" stroke="none" stroke-width="1" stroke-dasharray="none" stroke-dashoffset="0" stroke-linejoin="miter" stroke-miterlimit="4" fill="rgb(0,124,206)" fill-rule="evenodd"/>
      </g>
      <g transform="matrix(1.33 0 0 1.33 86.83 44.88)" id="path4">
        <path vector-effect="non-scaling-stroke" transform=" translate(-471.8, -345.74)" d="M 221.324219 401.375 L 221.324219 239.742188 L 323.617188 239.742188 L 323.617188 263.539063 L 243.886719 263.539063 L 243.886719 260.140625 L 247.285156 260.140625 L 247.285156 313.605469 L 243.886719 313.605469 L 243.886719 310.207031 L 318.671875 310.207031 L 318.671875 334.003906 L 243.886719 334.003906 L 243.886719 330.601563 L 247.285156 330.601563 L 247.285156 384.375 L 243.886719 384.375 L 243.886719 380.976563 L 324.855469 380.976563 L 324.855469 404.773438 L 221.324219 404.773438 Z M 228.125 401.375 L 224.722656 401.375 L 224.722656 397.972656 L 321.453125 397.972656 L 321.453125 401.375 L 318.054688 401.375 L 318.054688 384.375 L 321.453125 384.375 L 321.453125 387.777344 L 240.484375 387.777344 L 240.484375 327.203125 L 315.273438 327.203125 L 315.273438 330.601563 L 311.875 330.601563 L 311.875 313.605469 L 315.273438 313.605469 L 315.273438 317.003906 L 240.484375 317.003906 L 240.484375 256.742188 L 320.21875 256.742188 L 320.21875 260.140625 L 316.820313 260.140625 L 316.820313 243.144531 L 320.21875 243.144531 L 320.21875 246.542969 L 224.722656 246.542969 L 224.722656 243.144531 L 228.125 243.144531 Z M 224.722656 401.375 L 224.722656 243.144531 L 320.21875 243.144531 L 320.21875 260.140625 L 243.886719 260.140625 L 243.886719 313.605469 L 315.273438 313.605469 L 315.273438 330.601563 L 243.886719 330.601563 L 243.886719 384.375 L 321.453125 384.375 L 321.453125 401.375 Z M 397.171875 407.246094 C 386.597656 407.246094 377.242188 404.546875 369.101563 399.144531 C 360.996094 393.769531 354.671875 386.195313 350.125 376.421875 C 345.640625 366.773438 343.398438 355.414063 343.398438 342.347656 C 343.398438 329.378906 345.640625 318.082031 350.128906 308.460938 C 354.675781 298.707031 361.03125 291.15625 369.191406 285.804688 C 377.382813 280.441406 386.8125 277.757813 397.480469 277.757813 C 405.800781 277.757813 412.476563 279.179688 417.503906 282.019531 C 422.425781 284.804688 426.230469 288 428.910156 291.605469 C 431.347656 294.878906 433.253906 297.578125 434.632813 299.699219 L 431.785156 301.550781 L 431.785156 298.152344 L 433.328125 298.152344 L 433.328125 301.550781 L 429.929688 301.550781 L 429.929688 239.742188 L 454.960938 239.742188 L 454.960938 404.773438 L 430.546875 404.773438 L 430.546875 383.140625 L 433.945313 383.140625 L 433.945313 386.539063 L 431.785156 386.539063 L 431.785156 383.140625 L 434.675781 384.929688 C 433.28125 387.183594 431.3125 389.984375 428.777344 393.339844 C 426.015625 396.992188 422.136719 400.210938 417.132813 402.992188 C 412.035156 405.828125 405.382813 407.246094 397.171875 407.246094 Z M 397.171875 400.445313 C 404.207031 400.445313 409.757813 399.316406 413.828125 397.050781 C 417.996094 394.734375 421.171875 392.128906 423.355469 389.242188 C 425.761719 386.054688 427.609375 383.425781 428.894531 381.351563 L 429.890625 379.742188 L 437.347656 379.742188 L 437.347656 401.375 L 433.945313 401.375 L 433.945313 397.972656 L 451.5625 397.972656 L 451.5625 401.375 L 448.164063 401.375 L 448.164063 243.144531 L 451.5625 243.144531 L 451.5625 246.542969 L 433.328125 246.542969 L 433.328125 243.144531 L 436.726563 243.144531 L 436.726563 304.953125 L 429.9375 304.953125 L 428.933594 303.40625 C 427.632813 301.40625 425.808594 298.824219 423.453125 295.664063 C 421.34375 292.828125 418.246094 290.253906 414.15625 287.9375 C 410.167969 285.683594 404.609375 284.554688 397.480469 284.554688 C 388.164063 284.554688 379.976563 286.867188 372.917969 291.492188 C 365.835938 296.136719 360.292969 302.75 356.289063 311.332031 C 352.226563 320.046875 350.195313 330.382813 350.195313 342.347656 C 350.195313 354.414063 352.226563 364.816406 356.292969 373.554688 C 360.296875 382.171875 365.820313 388.8125 372.859375 393.480469 C 379.859375 398.125 387.964844 400.445313 397.171875 400.445313 Z M 399.644531 384.066406 C 406.195313 384.066406 411.6875 382.378906 416.128906 379.003906 C 420.664063 375.558594 424.128906 370.71875 426.523438 364.496094 C 429 358.066406 430.238281 350.578125 430.238281 342.039063 C 430.238281 333.601563 429.027344 326.242188 426.601563 319.96875 C 424.265625 313.910156 420.835938 309.210938 416.320313 305.871094 C 411.871094 302.578125 406.3125 300.933594 399.644531 300.933594 C 392.6875 300.933594 386.953125 302.667969 382.4375 306.140625 C 377.824219 309.6875 374.355469 314.523438 372.03125 320.644531 C 369.628906 326.976563 368.429688 334.109375 368.429688 342.039063 C 368.429688 350.070313 369.65625 357.332031 372.113281 363.820313 C 374.488281 370.109375 377.996094 375.078125 382.625 378.734375 C 387.132813 382.289063 392.804688 384.066406 399.644531 384.066406 Z M 399.644531 390.867188 C 391.234375 390.867188 384.15625 388.601563 378.414063 384.070313 C 372.796875 379.636719 368.574219 373.6875 365.753906 366.226563 C 363.003906 358.960938 361.628906 350.898438 361.628906 342.039063 C 361.628906 333.277344 362.980469 325.34375 365.675781 318.234375 C 368.453125 310.910156 372.660156 305.082031 378.292969 300.75 C 384.03125 296.339844 391.144531 294.136719 399.644531 294.136719 C 407.808594 294.136719 414.714844 296.226563 420.363281 300.402344 C 425.9375 304.527344 430.132813 310.234375 432.945313 317.519531 C 435.671875 324.582031 437.039063 332.753906 437.039063 342.039063 C 437.039063 351.421875 435.648438 359.722656 432.871094 366.9375 C 430.011719 374.363281 425.804688 380.191406 420.242188 384.417969 C 414.585938 388.714844 407.71875 390.867188 399.644531 390.867188 Z M 397.171875 403.847656 C 387.28125 403.847656 378.550781 401.335938 370.980469 396.3125 C 363.40625 391.292969 357.484375 384.183594 353.210938 374.988281 C 348.933594 365.796875 346.796875 354.914063 346.796875 342.347656 C 346.796875 329.882813 348.933594 319.066406 353.210938 309.898438 C 357.484375 300.726563 363.433594 293.644531 371.054688 288.648438 C 378.679688 283.652344 387.488281 281.15625 397.480469 281.15625 C 405.207031 281.15625 411.324219 282.429688 415.828125 284.980469 C 420.335938 287.53125 423.789063 290.414063 426.183594 293.632813 C 428.578125 296.851563 430.445313 299.492188 431.785156 301.550781 L 433.328125 301.550781 L 433.328125 243.144531 L 451.5625 243.144531 L 451.5625 401.375 L 433.945313 401.375 L 433.945313 383.140625 L 431.785156 383.140625 C 430.445313 385.304688 428.539063 388.019531 426.066406 391.292969 C 423.59375 394.5625 420.066406 397.472656 415.480469 400.023438 C 410.898438 402.570313 404.792969 403.847656 397.171875 403.847656 Z M 399.644531 387.464844 C 406.957031 387.464844 413.136719 385.546875 418.1875 381.710938 C 423.234375 377.875 427.070313 372.542969 429.699219 365.71875 C 432.324219 358.894531 433.636719 351 433.636719 342.039063 C 433.636719 333.179688 432.351563 325.414063 429.773438 318.742188 C 427.199219 312.074219 423.386719 306.871094 418.339844 303.136719 C 413.292969 299.402344 407.058594 297.535156 399.644531 297.535156 C 391.917969 297.535156 385.492188 299.503906 380.367188 303.445313 C 375.242188 307.386719 371.402344 312.714844 368.855469 319.4375 C 366.304688 326.160156 365.03125 333.691406 365.03125 342.039063 C 365.03125 350.484375 366.332031 358.144531 368.933594 365.023438 C 371.53125 371.898438 375.394531 377.359375 380.519531 381.402344 C 385.644531 385.445313 392.019531 387.464844 399.644531 387.464844 Z M 535.3125 451.746094 C 526.117188 451.746094 518.167969 450.5625 511.464844 448.191406 C 504.726563 445.808594 499.097656 442.660156 494.574219 438.75 C 490.101563 434.882813 486.539063 430.734375 483.878906 426.300781 L 482.25 423.589844 L 502.042969 409.691406 L 504.023438 412.292969 C 505.613281 414.382813 507.640625 416.796875 510.105469 419.535156 C 512.324219 422.003906 515.429688 424.183594 519.421875 426.078125 C 523.367188 427.945313 528.664063 428.878906 535.3125 428.878906 C 544.144531 428.878906 551.375 426.785156 557.003906 422.597656 C 562.324219 418.640625 564.980469 412.289063 564.980469 403.535156 L 564.980469 379.429688 L 568.382813 379.429688 L 568.382813 382.832031 L 566.835938 382.832031 L 566.835938 379.429688 L 569.726563 381.222656 C 568.324219 383.484375 566.367188 386.246094 563.847656 389.507813 C 561.105469 393.054688 557.242188 396.167969 552.257813 398.84375 C 547.195313 401.5625 540.519531 402.917969 532.222656 402.917969 C 522.019531 402.917969 512.847656 400.492188 504.714844 395.640625 C 496.554688 390.773438 490.125 383.71875 485.425781 374.484375 C 480.773438 365.347656 478.449219 354.324219 478.449219 341.417969 C 478.449219 328.753906 480.695313 317.671875 485.1875 308.171875 C 489.738281 298.554688 496.09375 291.085938 504.253906 285.761719 C 512.4375 280.425781 521.867188 277.757813 532.53125 277.757813 C 540.847656 277.757813 547.542969 279.175781 552.617188 282.011719 C 557.589844 284.792969 561.441406 287.980469 564.171875 291.578125 C 566.667969 294.863281 568.609375 297.570313 569.996094 299.699219 L 567.144531 301.550781 L 567.144531 298.152344 L 569 298.152344 L 569 301.550781 L 565.601563 301.550781 L 565.601563 279.300781 L 590.015625 279.300781 L 590.015625 404.773438 C 590.015625 415.703125 587.496094 424.667969 582.460938 431.675781 C 577.457031 438.632813 570.765625 443.742188 562.390625 446.996094 C 554.242188 450.164063 545.214844 451.746094 535.3125 451.746094 Z M 535.3125 444.949219 C 544.367188 444.949219 552.570313 443.519531 559.925781 440.660156 C 567.050781 437.890625 572.722656 433.574219 576.941406 427.707031 C 581.125 421.886719 583.214844 414.242188 583.214844 404.773438 L 583.214844 282.699219 L 586.613281 282.699219 L 586.613281 286.101563 L 569 286.101563 L 569 282.699219 L 572.398438 282.699219 L 572.398438 304.953125 L 565.300781 304.953125 L 564.292969 303.40625 C 563 301.414063 561.15625 298.84375 558.757813 295.691406 C 556.597656 292.847656 553.445313 290.265625 549.300781 287.945313 C 545.257813 285.6875 539.667969 284.554688 532.53125 284.554688 C 523.214844 284.554688 515.023438 286.855469 507.964844 291.457031 C 500.878906 296.078125 495.335938 302.621094 491.335938 311.078125 C 487.277344 319.660156 485.25 329.773438 485.25 341.417969 C 485.25 353.238281 487.328125 363.230469 491.484375 371.398438 C 495.589844 379.46875 501.164063 385.605469 508.199219 389.800781 C 515.257813 394.011719 523.265625 396.121094 532.222656 396.121094 C 539.378906 396.121094 544.984375 395.03125 549.042969 392.855469 C 553.175781 390.636719 556.316406 388.136719 558.464844 385.351563 C 560.839844 382.273438 562.667969 379.707031 563.945313 377.640625 L 564.941406 376.03125 L 571.78125 376.03125 L 571.78125 403.535156 C 571.78125 414.566406 568.207031 422.738281 561.0625 428.050781 C 554.226563 433.136719 545.644531 435.675781 535.3125 435.675781 C 527.644531 435.675781 521.378906 434.527344 516.511719 432.222656 C 511.699219 429.941406 507.875 427.226563 505.046875 424.082031 C 502.464844 421.207031 500.320313 418.648438 498.613281 416.414063 L 501.320313 414.355469 L 503.273438 417.136719 L 488.746094 427.335938 L 486.792969 424.550781 L 489.707031 422.804688 C 491.996094 426.613281 495.097656 430.214844 499.023438 433.609375 C 502.898438 436.960938 507.800781 439.683594 513.730469 441.78125 C 519.699219 443.894531 526.894531 444.949219 535.3125 444.949219 Z M 534.695313 379.742188 C 541.324219 379.742188 546.878906 378.253906 551.359375 375.285156 C 555.832031 372.316406 559.25 368.007813 561.613281 362.359375 C 564.066406 356.496094 565.289063 349.410156 565.289063 341.109375 C 565.289063 332.988281 564.082031 325.859375 561.664063 319.71875 C 559.328125 313.785156 555.898438 309.160156 551.378906 305.835938 C 546.929688 302.570313 541.371094 300.933594 534.695313 300.933594 C 527.734375 300.933594 521.996094 302.660156 517.480469 306.109375 C 512.863281 309.636719 509.398438 314.398438 507.078125 320.394531 C 504.679688 326.59375 503.480469 333.496094 503.480469 341.109375 C 503.480469 348.902344 504.695313 355.746094 507.125 361.640625 C 509.476563 367.335938 512.9375 371.785156 517.519531 374.984375 C 522.058594 378.15625 527.785156 379.742188 534.695313 379.742188 Z M 534.695313 386.539063 C 526.359375 386.539063 519.335938 384.546875 513.625 380.558594 C 507.957031 376.597656 503.695313 371.15625 500.839844 364.230469 C 498.070313 357.507813 496.683594 349.800781 496.683594 341.109375 C 496.683594 332.652344 498.035156 324.929688 500.734375 317.941406 C 503.515625 310.753906 507.722656 305.007813 513.355469 300.707031 C 519.089844 296.324219 526.203125 294.136719 534.695313 294.136719 C 542.855469 294.136719 549.757813 296.210938 555.40625 300.359375 C 560.980469 304.453125 565.175781 310.078125 567.992188 317.226563 C 570.722656 324.167969 572.089844 332.128906 572.089844 341.109375 C 572.089844 350.320313 570.6875 358.277344 567.886719 364.980469 C 564.996094 371.898438 560.738281 377.222656 555.117188 380.949219 C 549.5 384.675781 542.691406 386.539063 534.695313 386.539063 Z M 535.3125 448.347656 C 526.503906 448.347656 518.933594 447.226563 512.597656 444.988281 C 506.261719 442.746094 500.996094 439.8125 496.796875 436.179688 C 492.601563 432.546875 489.265625 428.671875 486.792969 424.550781 L 501.320313 414.355469 C 502.964844 416.515625 505.054688 419.003906 507.578125 421.808594 C 510.101563 424.617188 513.5625 427.0625 517.96875 429.148438 C 522.371094 431.234375 528.152344 432.277344 535.3125 432.277344 C 544.894531 432.277344 552.800781 429.960938 559.03125 425.324219 C 565.265625 420.6875 568.382813 413.425781 568.382813 403.535156 L 568.382813 379.429688 L 566.835938 379.429688 C 565.496094 381.59375 563.605469 384.261719 561.15625 387.429688 C 558.710938 390.597656 555.207031 393.402344 550.648438 395.847656 C 546.089844 398.296875 539.949219 399.519531 532.222656 399.519531 C 522.640625 399.519531 514.054688 397.253906 506.457031 392.71875 C 498.859375 388.1875 492.859375 381.59375 488.453125 372.941406 C 484.050781 364.289063 481.847656 353.78125 481.847656 341.417969 C 481.847656 329.261719 483.984375 318.664063 488.261719 309.625 C 492.535156 300.585938 498.484375 293.582031 506.109375 288.609375 C 513.730469 283.640625 522.539063 281.15625 532.53125 281.15625 C 540.257813 281.15625 546.398438 282.429688 550.957031 284.980469 C 555.515625 287.53125 559.019531 290.414063 561.464844 293.632813 C 563.914063 296.851563 565.804688 299.492188 567.144531 301.550781 L 569 301.550781 L 569 282.699219 L 586.613281 282.699219 L 586.613281 404.773438 C 586.613281 414.972656 584.308594 423.277344 579.699219 429.691406 C 575.089844 436.101563 568.910156 440.816406 561.15625 443.828125 C 553.40625 446.84375 544.789063 448.347656 535.3125 448.347656 Z M 534.695313 383.140625 C 542.007813 383.140625 548.191406 381.464844 553.238281 378.117188 C 558.285156 374.769531 562.121094 369.953125 564.75 363.671875 C 567.375 357.386719 568.691406 349.867188 568.691406 341.109375 C 568.691406 332.558594 567.402344 325.015625 564.828125 318.472656 C 562.25 311.929688 558.441406 306.804688 553.390625 303.097656 C 548.34375 299.390625 542.113281 297.535156 534.695313 297.535156 C 526.96875 297.535156 520.542969 299.492188 515.417969 303.40625 C 510.292969 307.320313 506.457031 312.574219 503.90625 319.167969 C 501.355469 325.761719 500.082031 333.074219 500.082031 341.109375 C 500.082031 349.351563 501.382813 356.625 503.984375 362.9375 C 506.585938 369.246094 510.449219 374.191406 515.574219 377.769531 C 520.699219 381.351563 527.070313 383.140625 534.695313 383.140625 Z M 669.746094 407.246094 C 657.671875 407.246094 647.230469 404.542969 638.417969 399.132813 C 629.585938 393.714844 622.800781 386.136719 618.054688 376.402344 C 613.371094 366.789063 611.027344 355.644531 611.027344 342.964844 C 611.027344 330.292969 613.367188 319.078125 618.046875 309.316406 C 622.777344 299.445313 629.410156 291.726563 637.949219 286.152344 C 646.523438 280.554688 656.503906 277.757813 667.894531 277.757813 C 674.449219 277.757813 680.921875 278.847656 687.304688 281.027344 C 693.789063 283.246094 699.679688 286.824219 704.980469 291.765625 C 710.304688 296.730469 714.527344 303.238281 717.652344 311.292969 C 720.742188 319.261719 722.285156 328.992188 722.285156 340.492188 L 722.285156 351.617188 L 624.007813 351.617188 L 624.007813 329.058594 L 700.34375 329.058594 L 700.34375 332.457031 L 696.945313 332.457031 C 696.945313 326.300781 695.738281 320.835938 693.328125 316.066406 C 690.960938 311.375 687.613281 307.679688 683.285156 304.976563 C 678.96875 302.28125 673.835938 300.933594 667.894531 300.933594 C 661.328125 300.933594 655.691406 302.527344 650.988281 305.71875 C 646.203125 308.964844 642.527344 313.175781 639.957031 318.359375 C 637.359375 323.601563 636.0625 329.226563 636.0625 335.238281 L 636.0625 345.746094 C 636.0625 354.171875 637.5 361.246094 640.375 366.972656 C 643.1875 372.574219 647.082031 376.816406 652.058594 379.695313 C 657.09375 382.609375 662.992188 384.066406 669.746094 384.066406 C 674.152344 384.066406 678.117188 383.449219 681.640625 382.210938 C 685.058594 381.011719 688.003906 379.207031 690.476563 376.800781 C 692.949219 374.398438 694.867188 371.375 696.234375 367.730469 L 697.328125 364.808594 L 721.3125 371.539063 L 720.277344 374.875 C 718.261719 381.371094 714.878906 387.0625 710.121094 391.960938 C 705.398438 396.820313 699.585938 400.589844 692.6875 403.269531 C 685.855469 405.917969 678.207031 407.246094 669.746094 407.246094 Z M 669.746094 400.445313 C 677.359375 400.445313 684.183594 399.273438 690.226563 396.929688 C 696.207031 394.609375 701.210938 391.375 705.246094 387.222656 C 709.246094 383.105469 712.089844 378.316406 713.785156 372.859375 L 717.03125 373.867188 L 716.113281 377.140625 L 698.496094 372.195313 L 699.414063 368.925781 L 702.597656 370.117188 C 700.875 374.714844 698.414063 378.566406 695.21875 381.675781 C 692.027344 384.777344 688.253906 387.097656 683.890625 388.625 C 679.640625 390.121094 674.925781 390.867188 669.746094 390.867188 C 661.773438 390.867188 654.742188 389.105469 648.652344 385.582031 C 642.503906 382.023438 637.71875 376.835938 634.296875 370.023438 C 630.941406 363.339844 629.261719 355.246094 629.261719 345.746094 L 629.261719 335.238281 C 629.261719 328.167969 630.796875 321.535156 633.867188 315.339844 C 636.964844 309.089844 641.398438 304.003906 647.171875 300.089844 C 653.027344 296.121094 659.933594 294.136719 667.894531 294.136719 C 675.136719 294.136719 681.464844 295.828125 686.882813 299.210938 C 692.289063 302.585938 696.460938 307.179688 699.398438 313 C 702.292969 318.734375 703.742188 325.222656 703.742188 332.457031 L 703.742188 335.855469 L 627.410156 335.855469 L 627.410156 332.457031 L 630.808594 332.457031 L 630.808594 348.21875 L 627.410156 348.21875 L 627.410156 344.820313 L 718.886719 344.820313 L 718.886719 348.21875 L 715.484375 348.21875 L 715.484375 340.492188 C 715.484375 329.84375 714.09375 320.929688 711.3125 313.753906 C 708.5625 306.664063 704.90625 300.992188 700.34375 296.738281 C 695.753906 292.457031 690.671875 289.367188 685.105469 287.460938 C 679.433594 285.523438 673.699219 284.554688 667.894531 284.554688 C 657.855469 284.554688 649.113281 286.984375 641.667969 291.84375 C 634.1875 296.726563 628.359375 303.527344 624.175781 312.253906 C 619.945313 321.085938 617.828125 331.324219 617.828125 342.964844 C 617.828125 354.597656 619.941406 364.75 624.167969 373.421875 C 628.332031 381.972656 634.269531 388.609375 641.972656 393.339844 C 649.695313 398.078125 658.953125 400.445313 669.746094 400.445313 Z M 669.746094 403.847656 C 658.3125 403.847656 648.460938 401.308594 640.195313 396.234375 C 631.929688 391.164063 625.566406 384.054688 621.113281 374.910156 C 616.65625 365.769531 614.429688 355.121094 614.429688 342.964844 C 614.429688 330.808594 616.65625 320.082031 621.113281 310.785156 C 625.566406 301.488281 631.800781 294.226563 639.808594 288.996094 C 647.816406 283.769531 657.179688 281.15625 667.894531 281.15625 C 674.074219 281.15625 680.179688 282.1875 686.203125 284.246094 C 692.230469 286.304688 697.714844 289.640625 702.660156 294.25 C 707.605469 298.859375 711.546875 304.953125 714.480469 312.523438 C 717.417969 320.09375 718.886719 329.417969 718.886719 340.492188 L 718.886719 348.21875 L 627.410156 348.21875 L 627.410156 332.457031 L 700.34375 332.457031 C 700.34375 325.761719 699.015625 319.785156 696.363281 314.53125 C 693.710938 309.277344 689.953125 305.132813 685.082031 302.09375 C 680.214844 299.054688 674.484375 297.535156 667.894531 297.535156 C 660.628906 297.535156 654.359375 299.324219 649.082031 302.90625 C 643.800781 306.484375 639.746094 311.132813 636.910156 316.851563 C 634.078125 322.566406 632.664063 328.695313 632.664063 335.238281 L 632.664063 345.746094 C 632.664063 354.707031 634.21875 362.292969 637.335938 368.5 C 640.453125 374.707031 644.792969 379.417969 650.355469 382.636719 C 655.917969 385.855469 662.382813 387.464844 669.746094 387.464844 C 674.539063 387.464844 678.878906 386.785156 682.765625 385.417969 C 686.65625 384.054688 690.015625 381.992188 692.847656 379.238281 C 695.679688 376.484375 697.871094 373.042969 699.414063 368.925781 L 717.03125 373.867188 C 715.175781 379.84375 712.0625 385.085938 707.683594 389.589844 C 703.304688 394.097656 697.894531 397.601563 691.457031 400.097656 C 685.019531 402.597656 677.78125 403.847656 669.746094 403.847656 Z M 669.746094 403.847656" stroke-linecap="butt" stroke="none" stroke-width="1" stroke-dasharray="none" stroke-dashoffset="0" stroke-linejoin="miter" stroke-miterlimit="4" fill="rgb(0,0,0)" fill-rule="nonzero"/>
      </g>
      <g transform="matrix(1.33 0 0 1.33 128.45 282.85)" id="path6">
        <path vector-effect="non-scaling-stroke" transform=" translate(-503.02, -524.22)" d="M 352.050781 497.800781 L 330.117188 497.800781 L 329.558594 495.085938 C 328.515625 490.011719 326.714844 485.578125 324.160156 481.773438 C 321.578125 477.941406 318.460938 474.714844 314.800781 472.09375 C 311.117188 469.457031 307.039063 467.472656 302.558594 466.136719 C 298.035156 464.789063 293.3125 464.117188 288.386719 464.117188 C 279.457031 464.117188 271.390625 466.363281 264.191406 470.863281 C 256.992188 475.359375 251.257813 482.023438 246.984375 490.859375 C 242.652344 499.820313 240.484375 510.890625 240.484375 524.070313 C 240.484375 537.253906 242.652344 548.324219 246.984375 557.28125 C 251.257813 566.117188 256.992188 572.785156 264.191406 577.277344 C 271.390625 581.777344 279.457031 584.023438 288.386719 584.023438 C 293.3125 584.023438 298.035156 583.351563 302.558594 582.003906 C 307.039063 580.667969 311.117188 578.683594 314.800781 576.046875 C 318.457031 573.425781 321.574219 570.191406 324.152344 566.335938 C 326.714844 562.503906 328.515625 558.074219 329.5625 553.046875 L 330.125 550.339844 L 356.109375 550.339844 L 355.398438 554.335938 C 353.882813 562.832031 351.113281 570.449219 347.089844 577.191406 C 343.0625 583.9375 338.050781 589.671875 332.054688 594.386719 C 326.074219 599.085938 319.382813 602.660156 311.972656 605.101563 C 304.597656 607.53125 296.734375 608.75 288.386719 608.75 C 274.238281 608.75 261.636719 605.277344 250.578125 598.339844 C 239.527344 591.40625 230.847656 581.574219 224.535156 568.847656 C 218.273438 556.214844 215.144531 541.289063 215.144531 524.070313 C 215.144531 506.851563 218.273438 491.925781 224.535156 479.292969 C 230.847656 466.566406 239.527344 456.734375 250.578125 449.800781 C 261.636719 442.863281 274.238281 439.390625 288.386719 439.390625 C 296.734375 439.390625 304.597656 440.609375 311.972656 443.039063 C 319.382813 445.484375 326.074219 449.054688 332.054688 453.757813 C 338.050781 458.46875 343.058594 464.1875 347.085938 470.90625 C 351.113281 477.625 353.882813 485.261719 355.398438 493.808594 L 356.105469 497.800781 Z M 352.050781 491.003906 L 352.050781 494.402344 L 348.703125 494.996094 C 347.332031 487.269531 344.851563 480.402344 341.253906 474.402344 C 337.65625 468.398438 333.191406 463.296875 327.851563 459.101563 C 322.5 454.890625 316.496094 451.691406 309.84375 449.496094 C 303.160156 447.292969 296.007813 446.191406 288.386719 446.191406 C 275.542969 446.191406 264.144531 449.316406 254.191406 455.5625 C 244.226563 461.8125 236.371094 470.730469 230.628906 482.3125 C 224.839844 493.996094 221.941406 507.914063 221.941406 524.070313 C 221.941406 540.226563 224.839844 554.148438 230.628906 565.828125 C 236.371094 577.410156 244.226563 586.328125 254.191406 592.582031 C 264.144531 598.828125 275.542969 601.949219 288.386719 601.949219 C 296.007813 601.949219 303.160156 600.847656 309.84375 598.644531 C 316.496094 596.449219 322.5 593.25 327.851563 589.039063 C 333.1875 584.84375 337.652344 579.734375 341.25 573.707031 C 344.851563 567.675781 347.335938 560.820313 348.703125 553.140625 L 352.050781 553.738281 L 352.050781 557.136719 L 332.890625 557.136719 L 332.890625 553.738281 L 336.21875 554.429688 C 334.996094 560.320313 332.859375 565.550781 329.804688 570.113281 C 326.769531 574.65625 323.085938 578.476563 318.761719 581.574219 C 314.460938 584.652344 309.707031 586.96875 304.5 588.519531 C 299.34375 590.054688 293.972656 590.824219 288.386719 590.824219 C 278.15625 590.824219 268.890625 588.230469 260.589844 583.046875 C 252.28125 577.855469 245.707031 570.253906 240.863281 560.242188 C 236.078125 550.347656 233.6875 538.289063 233.6875 524.070313 C 233.6875 509.851563 236.078125 497.792969 240.863281 487.898438 C 245.707031 477.886719 252.28125 470.285156 260.589844 465.097656 C 268.890625 459.910156 278.15625 457.316406 288.386719 457.316406 C 293.972656 457.316406 299.34375 458.085938 304.5 459.621094 C 309.707031 461.171875 314.460938 463.488281 318.761719 466.566406 C 323.085938 469.664063 326.765625 473.46875 329.800781 477.980469 C 332.855469 482.523438 334.996094 487.769531 336.21875 493.71875 L 332.890625 494.402344 L 332.890625 491.003906 Z M 352.050781 494.402344 L 332.890625 494.402344 C 331.757813 488.890625 329.785156 484.050781 326.980469 479.878906 C 324.171875 475.707031 320.773438 472.191406 316.78125 469.332031 C 312.789063 466.472656 308.371094 464.320313 303.53125 462.878906 C 298.6875 461.4375 293.640625 460.714844 288.386719 460.714844 C 278.808594 460.714844 270.140625 463.136719 262.390625 467.980469 C 254.636719 472.820313 248.480469 479.953125 243.921875 489.378906 C 239.363281 498.804688 237.085938 510.371094 237.085938 524.070313 C 237.085938 537.773438 239.363281 549.335938 243.921875 558.761719 C 248.480469 568.1875 254.636719 575.320313 262.390625 580.160156 C 270.140625 585.003906 278.808594 587.425781 288.386719 587.425781 C 293.640625 587.425781 298.6875 586.703125 303.53125 585.261719 C 308.371094 583.820313 312.789063 581.667969 316.78125 578.808594 C 320.773438 575.953125 324.171875 572.421875 326.980469 568.226563 C 329.785156 564.027344 331.757813 559.199219 332.890625 553.738281 L 352.050781 553.738281 C 350.609375 561.824219 347.980469 569.0625 344.167969 575.449219 C 340.359375 581.835938 335.621094 587.257813 329.953125 591.710938 C 324.289063 596.167969 317.941406 599.554688 310.910156 601.871094 C 303.878906 604.191406 296.371094 605.347656 288.386719 605.347656 C 274.890625 605.347656 262.890625 602.054688 252.382813 595.460938 C 241.875 588.867188 233.609375 579.492188 227.582031 567.335938 C 221.554688 555.179688 218.542969 540.757813 218.542969 524.070313 C 218.542969 507.382813 221.554688 492.960938 227.582031 480.804688 C 233.609375 468.648438 241.875 459.273438 252.382813 452.679688 C 262.890625 446.089844 274.890625 442.792969 288.386719 442.792969 C 296.371094 442.792969 303.878906 443.949219 310.910156 446.269531 C 317.941406 448.585938 324.289063 451.972656 329.953125 456.429688 C 335.621094 460.882813 340.359375 466.292969 344.167969 472.652344 C 347.980469 479.015625 350.609375 486.265625 352.050781 494.402344 Z M 377.082031 441.554688 L 402.117188 441.554688 L 402.117188 606.585938 L 377.082031 606.585938 Z M 480.304688 609.058594 C 468.933594 609.058594 458.941406 606.332031 450.324219 600.882813 C 441.722656 595.441406 435.027344 587.851563 430.238281 578.109375 C 425.5 568.464844 423.128906 557.253906 423.128906 544.46875 C 423.128906 531.582031 425.5 520.292969 430.234375 510.601563 C 435.023438 500.804688 441.722656 493.1875 450.324219 487.742188 C 458.941406 482.292969 468.933594 479.566406 480.304688 479.566406 C 491.671875 479.566406 501.667969 482.292969 510.28125 487.742188 C 518.886719 493.1875 525.582031 500.804688 530.371094 510.601563 C 535.109375 520.292969 537.476563 531.582031 537.476563 544.46875 C 537.476563 557.253906 535.105469 568.464844 530.367188 578.109375 C 525.578125 587.851563 518.882813 595.441406 510.28125 600.882813 C 501.667969 606.332031 491.671875 609.058594 480.304688 609.058594 Z M 480.304688 602.257813 C 490.359375 602.257813 499.140625 599.882813 506.648438 595.136719 C 514.167969 590.378906 520.042969 583.703125 524.265625 575.109375 C 528.539063 566.414063 530.679688 556.199219 530.679688 544.46875 C 530.679688 532.628906 528.539063 522.335938 524.261719 513.589844 C 520.039063 504.945313 514.167969 498.246094 506.648438 493.488281 C 499.140625 488.742188 490.359375 486.367188 480.304688 486.367188 C 470.246094 486.367188 461.464844 488.742188 453.960938 493.488281 C 446.441406 498.246094 440.570313 504.945313 436.34375 513.589844 C 432.066406 522.335938 429.929688 532.628906 429.929688 544.46875 C 429.929688 556.199219 432.066406 566.414063 436.339844 575.109375 C 440.566406 583.703125 446.4375 590.378906 453.960938 595.136719 C 461.464844 599.882813 470.246094 602.257813 480.304688 602.257813 Z M 480.304688 585.878906 C 487.652344 585.878906 493.640625 584.039063 498.277344 580.359375 C 503.035156 576.578125 506.566406 571.585938 508.871094 565.382813 C 511.253906 558.964844 512.445313 551.992188 512.445313 544.46875 C 512.445313 536.941406 511.253906 529.941406 508.867188 523.46875 C 506.5625 517.207031 503.027344 512.160156 498.261719 508.332031 C 493.628906 504.609375 487.644531 502.746094 480.304688 502.746094 C 472.964844 502.746094 466.976563 504.609375 462.34375 508.332031 C 457.582031 512.160156 454.046875 517.207031 451.738281 523.46875 C 449.355469 529.941406 448.164063 536.941406 448.164063 544.46875 C 448.164063 551.992188 449.355469 558.964844 451.734375 565.382813 C 454.039063 571.585938 457.570313 576.578125 462.328125 580.359375 C 466.964844 584.039063 472.957031 585.878906 480.304688 585.878906 Z M 480.304688 592.679688 C 471.375 592.679688 463.972656 590.347656 458.101563 585.683594 C 452.351563 581.117188 448.105469 575.140625 445.363281 567.746094 C 442.695313 560.566406 441.363281 552.808594 441.363281 544.46875 C 441.363281 536.132813 442.695313 528.347656 445.359375 521.117188 C 448.101563 513.679688 452.34375 507.648438 458.085938 503.03125 C 463.960938 498.308594 471.367188 495.949219 480.304688 495.949219 C 489.238281 495.949219 496.644531 498.308594 502.519531 503.03125 C 508.265625 507.648438 512.507813 513.679688 515.246094 521.117188 C 517.910156 528.347656 519.242188 536.132813 519.242188 544.46875 C 519.242188 552.808594 517.910156 560.566406 515.246094 567.746094 C 512.5 575.140625 508.253906 581.117188 502.503906 585.683594 C 496.632813 590.347656 489.230469 592.679688 480.304688 592.679688 Z M 480.304688 605.660156 C 469.589844 605.660156 460.203125 603.109375 452.140625 598.007813 C 444.082031 592.910156 437.796875 585.777344 433.289063 576.609375 C 428.785156 567.441406 426.53125 556.726563 426.53125 544.46875 C 426.53125 532.105469 428.785156 521.316406 433.289063 512.09375 C 437.796875 502.875 444.082031 495.714844 452.140625 490.617188 C 460.203125 485.515625 469.589844 482.96875 480.304688 482.96875 C 491.015625 482.96875 500.402344 485.515625 508.464844 490.617188 C 516.527344 495.714844 522.808594 502.875 527.316406 512.09375 C 531.824219 521.316406 534.078125 532.105469 534.078125 544.46875 C 534.078125 556.726563 531.824219 567.441406 527.316406 576.609375 C 522.808594 585.777344 516.527344 592.910156 508.464844 598.007813 C 500.402344 603.109375 491.015625 605.660156 480.304688 605.660156 Z M 480.304688 589.277344 C 488.441406 589.277344 495.136719 587.191406 500.390625 583.019531 C 505.644531 578.847656 509.535156 573.363281 512.058594 566.5625 C 514.582031 559.765625 515.84375 552.398438 515.84375 544.46875 C 515.84375 536.535156 514.582031 529.144531 512.058594 522.292969 C 509.535156 515.441406 505.644531 509.90625 500.390625 505.683594 C 495.136719 501.457031 488.441406 499.347656 480.304688 499.347656 C 472.164063 499.347656 465.46875 501.457031 460.214844 505.683594 C 454.960938 509.90625 451.074219 515.441406 448.550781 522.292969 C 446.027344 529.144531 444.761719 536.535156 444.761719 544.46875 C 444.761719 552.398438 446.027344 559.765625 448.550781 566.5625 C 451.074219 573.363281 454.960938 578.847656 460.214844 583.019531 C 465.46875 587.191406 472.164063 589.277344 480.304688 589.277344 Z M 633.28125 554.664063 L 633.28125 481.113281 L 658.3125 481.113281 L 658.3125 606.585938 L 633.28125 606.585938 L 633.28125 583.097656 L 636.679688 583.097656 L 636.679688 586.496094 L 635.445313 586.496094 L 635.445313 583.097656 L 638.53125 584.523438 C 635.496094 591.09375 630.800781 596.652344 624.441406 601.199219 C 617.976563 605.820313 609.902344 608.128906 600.210938 608.128906 C 592.199219 608.128906 585.046875 606.347656 578.757813 602.78125 C 572.386719 599.171875 567.398438 593.746094 563.792969 586.507813 C 560.257813 579.410156 558.492188 570.546875 558.492188 559.917969 L 558.492188 481.113281 L 583.523438 481.113281 L 583.523438 558.683594 C 583.523438 566.433594 585.648438 572.558594 589.898438 577.054688 C 594.09375 581.496094 599.488281 583.714844 606.085938 583.714844 C 610.089844 583.714844 614.210938 582.671875 618.453125 580.589844 C 622.621094 578.539063 626.148438 575.367188 629.03125 571.082031 C 631.863281 566.863281 633.28125 561.390625 633.28125 554.664063 Z M 640.078125 554.664063 C 640.078125 562.773438 638.277344 569.507813 634.671875 574.871094 C 631.117188 580.164063 626.710938 584.105469 621.453125 586.6875 C 616.265625 589.238281 611.144531 590.515625 606.085938 590.515625 C 597.535156 590.515625 590.492188 587.585938 584.957031 581.722656 C 579.46875 575.917969 576.726563 568.238281 576.726563 558.683594 L 576.726563 484.511719 L 580.125 484.511719 L 580.125 487.914063 L 561.890625 487.914063 L 561.890625 484.511719 L 565.289063 484.511719 L 565.289063 559.917969 C 565.289063 569.480469 566.820313 577.332031 569.878906 583.476563 C 572.867188 589.472656 576.945313 593.9375 582.109375 596.867188 C 587.359375 599.84375 593.394531 601.332031 600.210938 601.332031 C 608.449219 601.332031 615.207031 599.445313 620.488281 595.667969 C 625.871094 591.820313 629.828125 587.15625 632.355469 581.671875 L 633.269531 579.699219 L 640.078125 579.699219 L 640.078125 603.1875 L 636.679688 603.1875 L 636.679688 599.785156 L 654.914063 599.785156 L 654.914063 603.1875 L 651.515625 603.1875 L 651.515625 484.511719 L 654.914063 484.511719 L 654.914063 487.914063 L 636.679688 487.914063 L 636.679688 484.511719 L 640.078125 484.511719 Z M 636.679688 554.664063 L 636.679688 484.511719 L 654.914063 484.511719 L 654.914063 603.1875 L 636.679688 603.1875 L 636.679688 583.097656 L 635.445313 583.097656 C 632.664063 589.125 628.335938 594.238281 622.464844 598.433594 C 616.59375 602.632813 609.175781 604.730469 600.210938 604.730469 C 592.796875 604.730469 586.203125 603.097656 580.433594 599.824219 C 574.664063 596.554688 570.132813 591.609375 566.835938 584.992188 C 563.539063 578.371094 561.890625 570.015625 561.890625 559.917969 L 561.890625 484.511719 L 580.125 484.511719 L 580.125 558.683594 C 580.125 567.335938 582.558594 574.238281 587.425781 579.390625 C 592.292969 584.539063 598.511719 587.117188 606.085938 587.117188 C 610.617188 587.117188 615.238281 585.957031 619.953125 583.640625 C 624.664063 581.320313 628.632813 577.765625 631.851563 572.976563 C 635.070313 568.1875 636.679688 562.082031 636.679688 554.664063 Z M 733.101563 609.058594 C 722.527344 609.058594 713.171875 606.359375 705.03125 600.957031 C 696.925781 595.582031 690.601563 588.007813 686.058594 578.234375 C 681.570313 568.585938 679.328125 557.226563 679.328125 544.160156 C 679.328125 531.191406 681.570313 519.894531 686.058594 510.273438 C 690.605469 500.519531 696.960938 492.96875 705.125 487.617188 C 713.3125 482.25 722.742188 479.566406 733.410156 479.566406 C 741.734375 479.566406 748.40625 480.988281 753.433594 483.832031 C 758.359375 486.617188 762.160156 489.8125 764.839844 493.417969 C 767.277344 496.691406 769.1875 499.390625 770.566406 501.511719 L 767.714844 503.363281 L 767.714844 499.964844 L 769.261719 499.964844 L 769.261719 503.363281 L 765.859375 503.363281 L 765.859375 441.554688 L 790.894531 441.554688 L 790.894531 606.585938 L 766.476563 606.585938 L 766.476563 584.953125 L 769.878906 584.953125 L 769.878906 588.351563 L 767.714844 588.351563 L 767.714844 584.953125 L 770.605469 586.742188 C 769.210938 588.996094 767.246094 591.796875 764.710938 595.152344 C 761.949219 598.804688 758.066406 602.023438 753.066406 604.804688 C 747.96875 607.640625 741.3125 609.058594 733.101563 609.058594 Z M 733.101563 602.257813 C 740.136719 602.257813 745.691406 601.125 749.761719 598.863281 C 753.925781 596.546875 757.101563 593.941406 759.285156 591.054688 C 761.695313 587.867188 763.539063 585.238281 764.824219 583.164063 L 765.820313 581.554688 L 773.277344 581.554688 L 773.277344 603.1875 L 769.878906 603.1875 L 769.878906 599.785156 L 787.492188 599.785156 L 787.492188 603.1875 L 784.09375 603.1875 L 784.09375 444.957031 L 787.492188 444.957031 L 787.492188 448.355469 L 769.261719 448.355469 L 769.261719 444.957031 L 772.660156 444.957031 L 772.660156 506.765625 L 765.871094 506.765625 L 764.863281 505.21875 C 763.5625 503.21875 761.738281 500.636719 759.386719 497.472656 C 757.277344 494.640625 754.175781 492.066406 750.085938 489.75 C 746.097656 487.496094 740.539063 486.367188 733.410156 486.367188 C 724.09375 486.367188 715.90625 488.679688 708.851563 493.304688 C 701.765625 497.949219 696.222656 504.5625 692.222656 513.144531 C 688.160156 521.859375 686.125 532.195313 686.125 544.160156 C 686.125 556.226563 688.160156 566.628906 692.222656 575.367188 C 696.226563 583.980469 701.75 590.625 708.789063 595.292969 C 715.792969 599.9375 723.894531 602.257813 733.101563 602.257813 Z M 735.574219 585.878906 C 742.125 585.878906 747.621094 584.191406 752.058594 580.816406 C 756.59375 577.367188 760.058594 572.53125 762.457031 566.308594 C 764.929688 559.878906 766.167969 552.390625 766.167969 543.847656 C 766.167969 535.414063 764.957031 528.054688 762.535156 521.78125 C 760.195313 515.722656 756.769531 511.023438 752.25 507.679688 C 747.800781 504.390625 742.242188 502.746094 735.574219 502.746094 C 728.617188 502.746094 722.882813 504.480469 718.371094 507.953125 C 713.753906 511.5 710.285156 516.335938 707.964844 522.457031 C 705.5625 528.789063 704.359375 535.921875 704.359375 543.847656 C 704.359375 551.882813 705.585938 559.144531 708.042969 565.632813 C 710.421875 571.921875 713.925781 576.890625 718.558594 580.546875 C 723.066406 584.101563 728.738281 585.878906 735.574219 585.878906 Z M 735.574219 592.679688 C 727.164063 592.679688 720.089844 590.414063 714.347656 585.882813 C 708.726563 581.449219 704.507813 575.5 701.683594 568.039063 C 698.933594 560.773438 697.5625 552.710938 697.5625 543.847656 C 697.5625 535.089844 698.910156 527.15625 701.605469 520.046875 C 704.382813 512.722656 708.589844 506.894531 714.226563 502.5625 C 719.960938 498.152344 727.078125 495.949219 735.574219 495.949219 C 743.738281 495.949219 750.644531 498.035156 756.292969 502.214844 C 761.871094 506.339844 766.066406 512.046875 768.878906 519.332031 C 771.605469 526.394531 772.96875 534.566406 772.96875 543.847656 C 772.96875 553.234375 771.578125 561.535156 768.800781 568.75 C 765.941406 576.175781 761.734375 582.003906 756.175781 586.230469 C 750.519531 590.527344 743.652344 592.679688 735.574219 592.679688 Z M 733.101563 605.660156 C 723.210938 605.660156 714.480469 603.148438 706.910156 598.125 C 699.339844 593.101563 693.414063 585.996094 689.140625 576.800781 C 684.863281 567.605469 682.726563 556.726563 682.726563 544.160156 C 682.726563 531.695313 684.863281 520.878906 689.140625 511.707031 C 693.414063 502.539063 699.363281 495.457031 706.988281 490.460938 C 714.609375 485.464844 723.417969 482.96875 733.410156 482.96875 C 741.136719 482.96875 747.253906 484.242188 751.761719 486.792969 C 756.265625 489.339844 759.71875 492.226563 762.113281 495.445313 C 764.507813 498.664063 766.375 501.304688 767.714844 503.363281 L 769.261719 503.363281 L 769.261719 444.957031 L 787.492188 444.957031 L 787.492188 603.1875 L 769.878906 603.1875 L 769.878906 584.953125 L 767.714844 584.953125 C 766.375 587.117188 764.46875 589.832031 761.996094 593.101563 C 759.523438 596.375 755.996094 599.285156 751.414063 601.832031 C 746.828125 604.382813 740.726563 605.660156 733.101563 605.660156 Z M 735.574219 589.277344 C 742.886719 589.277344 749.070313 587.359375 754.117188 583.523438 C 759.164063 579.6875 763 574.355469 765.628906 567.53125 C 768.253906 560.707031 769.570313 552.8125 769.570313 543.847656 C 769.570313 534.988281 768.28125 527.226563 765.707031 520.554688 C 763.128906 513.886719 759.320313 508.683594 754.269531 504.949219 C 749.222656 501.214844 742.992188 499.347656 735.574219 499.347656 C 727.847656 499.347656 721.421875 501.316406 716.296875 505.257813 C 711.171875 509.199219 707.335938 514.527344 704.785156 521.25 C 702.234375 527.972656 700.960938 535.503906 700.960938 543.847656 C 700.960938 552.296875 702.261719 559.957031 704.863281 566.835938 C 707.464844 573.710938 711.328125 579.171875 716.453125 583.214844 C 721.578125 587.257813 727.949219 589.277344 735.574219 589.277344 Z M 735.574219 589.277344" stroke-linecap="butt" stroke="none" stroke-width="1" stroke-dasharray="none" stroke-dashoffset="0" stroke-linejoin="miter" stroke-miterlimit="4" fill="rgb(0,124,206)" fill-rule="nonzero"/>
      </g>
    </g>
  </g>
</svg>