<?xml version="1.0" standalone="no"?>
<!DOCTYPE svg PUBLIC "-//W3C//DTD SVG 20010904//EN"
 "http://www.w3.org/TR/2001/REC-SVG-20010904/DTD/svg10.dtd">
<svg version="1.0" xmlns="http://www.w3.org/2000/svg"
 width="1180.000000pt" height="1180.000000pt" viewBox="0 0 1180.000000 1180.000000"
 preserveAspectRatio="xMidYMid meet">
<metadata>
Created by potrace 1.14, written by Peter Selinger 2001-2017
</metadata>
<g transform="translate(0.000000,1180.000000) scale(0.100000,-0.100000)"
fill="#000000" stroke="none">
<path d="M4735 8629 c-97 -9 -177 -19 -195 -24 -8 -2 -28 -7 -45 -10 -308 -54
-655 -201 -915 -389 -140 -101 -302 -257 -397 -382 -20 -27 -41 -53 -45 -59
-40 -50 -124 -204 -167 -304 -25 -60 -69 -198 -77 -246 -2 -16 -7 -37 -9 -45
-2 -8 -5 -31 -7 -50 l-2 -35 -225 0 c-243 -1 -369 -17 -561 -71 -542 -154
-990 -565 -1216 -1115 -55 -134 -64 -162 -113 -354 -60 -238 -73 -638 -27
-862 3 -15 8 -44 11 -63 33 -200 133 -458 253 -653 344 -559 968 -856 1687
-802 121 9 298 36 350 52 21 7 24 6 -85 27 -210 41 -492 164 -635 278 -5 4
-35 28 -66 52 -125 99 -286 301 -363 454 -87 172 -148 382 -174 592 -14 117
-6 477 13 532 2 7 6 32 9 56 3 24 14 80 25 125 80 339 236 633 446 842 116
117 124 123 230 193 144 96 279 153 460 197 136 32 213 40 403 38 159 0 162 0
163 21 0 11 2 30 4 41 2 11 6 37 10 58 16 109 107 323 186 438 249 367 646
598 1149 668 84 12 364 7 460 -8 585 -90 1061 -453 1375 -1046 32 -60 59 -112
61 -114 2 -2 10 4 19 13 63 63 242 178 380 246 88 42 241 99 315 116 73 17
121 25 175 30 33 4 63 8 67 11 11 6 219 4 303 -3 290 -23 614 -152 865 -345
338 -259 545 -606 614 -1033 3 -16 7 -30 9 -33 2 -2 26 1 53 7 27 7 57 13 67
15 10 2 26 6 35 9 38 12 224 29 312 29 208 2 378 -35 545 -117 269 -132 443
-343 523 -635 35 -129 37 -345 5 -460 -25 -85 -20 -83 35 19 88 166 123 358
100 560 -47 411 -341 743 -753 849 -126 33 -208 40 -370 36 -170 -5 -194 -8
-302 -31 -43 -9 -84 -17 -92 -18 -11 -1 -20 33 -38 134 -99 566 -349 980 -770
1273 -145 101 -416 213 -583 241 -19 3 -48 8 -65 11 -114 19 -314 25 -465 12
-225 -18 -470 -84 -709 -189 -73 -32 -135 -57 -136 -56 -2 2 -21 39 -43 83
-299 594 -762 982 -1362 1140 -11 3 -116 26 -135 29 -28 5 -113 18 -155 22
-66 8 -345 10 -415 3z"/>
</g>
</svg>
